<svg width="200" height="27" viewBox="0 0 200 27" fill="none" xmlns="http://www.w3.org/2000/svg">
<path d="M5.85463 25.2812C7.73389 26.3554 9.90226 26.8568 12.2875 26.8568C14.0945 26.8568 15.7568 26.4986 17.1301 25.8541C18.5036 25.2095 19.8045 24.1353 21.1056 22.7029V20.5544C19.8045 22.2016 18.5758 23.4191 17.347 24.0636C16.1905 24.7798 14.8896 25.0663 13.4439 25.0663C11.7092 25.0663 10.3359 24.6366 9.17947 23.7056C8.09529 22.7745 7.30021 21.4138 6.79426 19.5518C6.2883 17.7613 5.99918 15.6843 5.99918 13.4642C5.99918 11.244 6.36058 9.16711 7.08337 7.30504C7.6616 5.87268 8.45667 4.7268 9.68542 3.79575C10.8419 2.93634 12.1429 2.43501 13.5885 2.43501C15.251 2.43501 16.7688 3.00796 18.1421 4.22546C19.4432 5.44297 20.3827 7.1618 20.8888 9.38196H21.5392V0.787798H20.8888C20.8164 1.43236 20.6719 1.86207 20.3827 2.14854C20.0937 2.43501 19.8045 2.57824 19.4431 2.57824C19.154 2.57824 18.5036 2.36339 17.4916 1.93369C15.7568 1.14589 14.0222 0.787798 12.432 0.787798C10.2637 0.787798 8.23984 1.36075 6.36058 2.50663C4.33675 3.86737 2.81889 5.51459 1.66242 7.66313C0.505955 9.81167 0 12.0318 0 14.3952C0 16.6154 0.505955 18.7639 1.51786 20.7692C2.52978 22.7029 3.97536 24.2069 5.85463 25.2812ZM22.4066 26.2838H29.9236V25.6392C28.7671 25.5677 27.9721 25.4244 27.683 25.2095C27.177 24.8515 26.8879 24.3501 26.8879 23.7056C26.8879 23.2042 27.0325 22.488 27.3215 21.7003L28.2612 19.2653H36.2119L37.4407 22.3448C37.7297 23.1327 37.9466 23.6339 37.9466 23.7056C38.0189 23.9204 38.0189 24.1353 38.0189 24.3501C38.0189 24.7082 37.8744 24.9947 37.6575 25.2095C37.2962 25.496 36.7179 25.6392 35.7782 25.6392H35.3445V26.2838H46.2588V25.6392C45.5359 25.5677 45.03 25.3527 44.6686 24.9947C44.1626 24.4933 43.5122 23.2759 42.7893 21.3421L34.7663 1.00265H34.4773L26.3819 20.7692C25.5869 22.6313 24.9363 23.9204 24.4304 24.4933C23.9244 25.0663 23.274 25.496 22.4066 25.5676V26.2838ZM32.4534 9.38196L35.7782 17.9045H28.9118L32.4534 9.38196ZM50.8123 25.7824C51.1015 25.5677 51.4629 25.4244 51.7519 25.4244C52.1134 25.4244 52.547 25.5677 53.053 25.7824C53.9926 26.2121 54.7877 26.4986 55.4382 26.7135C56.0888 26.8568 56.7393 26.9283 57.4621 26.9283C59.7027 26.9283 61.5819 26.2121 63.0999 24.7082C64.5455 23.2042 65.3406 21.4138 65.3406 19.3369C65.3406 17.6896 64.9069 16.2572 63.9671 14.9681C63.0275 13.679 61.2929 12.3899 58.6185 10.9576C56.7393 9.95491 55.5106 9.23872 55.0045 8.80902C54.2818 8.23608 53.7758 7.66313 53.4867 7.09019C53.2699 6.66048 53.1253 6.15915 53.1253 5.65782C53.1253 4.79841 53.4867 4.01061 54.1373 3.36605C54.7877 2.72148 55.7274 2.36339 56.8115 2.36339C58.2571 2.36339 59.6304 3.00796 60.9315 4.22546C62.1601 5.51459 62.9552 7.1618 63.3167 9.23873H63.9671L63.6781 1.00265H63.1721C63.0275 1.71883 62.883 2.22016 62.7385 2.43501C62.5938 2.64986 62.377 2.72149 62.0879 2.72149C61.7988 2.72149 61.2929 2.50663 60.4978 2.14854C59.7749 1.71883 59.1245 1.50398 58.6185 1.36075C57.8958 1.14589 57.2452 1.07427 56.4501 1.07427C54.4263 1.07427 52.7638 1.79045 51.4629 3.1512C50.1618 4.51194 49.5114 6.23076 49.5114 8.16446C49.5114 9.31034 49.7282 10.3846 50.2341 11.3156C50.74 12.2467 51.3905 13.1777 52.3303 13.8939C53.1975 14.6817 54.7155 15.6128 56.7393 16.7586C58.1848 17.5464 59.1967 18.191 59.7749 18.6924C60.3532 19.1936 60.7868 19.695 61.076 20.268C61.3651 20.8409 61.5097 21.4138 61.5097 21.9868C61.5097 22.9894 61.1482 23.8488 60.4255 24.565C59.7027 25.2812 58.6908 25.7109 57.4621 25.7109C55.8719 25.7109 54.354 24.9947 52.9807 23.6339C51.6074 22.2732 50.6678 20.268 50.1618 17.618H49.5114V27H50.1618C50.2341 26.3554 50.5233 25.9974 50.8123 25.7824ZM87.6025 24.9947C87.0966 24.4933 86.446 23.2759 85.651 21.3421L77.5558 1.00265H77.2666L69.1712 20.7692C68.3762 22.6313 67.7258 23.9204 67.2197 24.4933C66.7138 25.0663 66.0633 25.496 65.1959 25.5676V26.2121H72.713V25.5676C71.5564 25.496 70.7614 25.3527 70.4723 25.1379C69.9663 24.7798 69.6773 24.2785 69.6773 23.6339C69.6773 23.1327 69.8218 22.4165 70.111 21.6286L71.0506 19.1936H79.0012L80.23 22.2732C80.5192 23.061 80.736 23.5624 80.736 23.6339C80.8082 23.8488 80.8082 24.0636 80.8082 24.2785C80.8082 24.6366 80.6637 24.923 80.4469 25.1379C80.0855 25.4244 79.5073 25.5676 78.5675 25.5676H78.134V26.2121H89.0481V25.5676C88.5422 25.5676 87.9638 25.3527 87.6025 24.9947ZM71.7733 17.9045L75.2427 9.38196L78.6399 17.9045H71.7733ZM113.262 2.07692C111.599 1.21751 109.359 0.859417 106.54 0.859417H96.1315V1.5756H96.9266C97.577 1.5756 98.083 1.71883 98.4444 1.93369C98.8058 2.14854 99.0949 2.43501 99.2395 2.79311C99.384 3.1512 99.4563 3.93899 99.4563 5.22812V21.9868C99.4563 23.2759 99.384 24.0636 99.3118 24.3501C99.1673 24.7798 98.8781 25.0663 98.5167 25.2812C98.1553 25.496 97.6493 25.6392 96.9988 25.6392H96.1315V26.3554H106.54C108.058 26.3554 109.142 26.2838 109.865 26.1406C111.455 25.7824 112.756 25.3527 113.84 24.7798C114.924 24.2069 115.864 23.4191 116.731 22.4165C117.598 21.4138 118.249 20.1963 118.755 18.6924C119.261 17.1883 119.55 15.5411 119.55 13.7507C119.55 11.1724 119.044 8.80902 117.96 6.80372C116.876 4.65518 115.285 3.1512 113.262 2.07692ZM111.31 22.8462C110.298 24.2785 108.853 24.9947 106.901 24.9947C106.323 24.9947 105.889 24.923 105.528 24.7082C105.311 24.565 105.166 24.4218 105.094 24.1353C105.022 23.9204 104.95 23.2759 104.95 22.2016V2.29177C106.829 2.29177 108.202 2.43501 109.069 2.86473C110.226 3.43767 111.166 4.44031 111.961 6.01591C112.9 7.9496 113.334 10.5995 113.334 13.8939C113.334 17.9045 112.683 20.9124 111.31 22.8462ZM117.598 0L123.308 6.51725H124.754L122.73 0H117.598ZM147.016 4.08222C144.703 1.5756 141.667 0.35809 137.981 0.501327C134.512 0.35809 131.693 1.5756 129.308 4.08222C126.922 6.58886 125.766 9.74005 125.766 13.5358C125.766 16.9019 126.633 19.8382 128.513 22.2732C130.825 25.3527 134.006 26.9283 138.199 26.9283C142.39 26.9283 145.642 25.2812 147.884 22.0583C149.618 19.6233 150.485 16.7586 150.485 13.5358C150.485 9.74005 149.329 6.58886 147.016 4.08222ZM143.474 20.7692C142.896 22.5597 142.101 23.7771 141.089 24.6366C140.295 25.2812 139.282 25.5676 138.126 25.5676C136.391 25.5676 135.018 24.8515 134.078 23.3474C132.705 21.2706 131.982 18.0477 131.982 13.679C131.982 10.0265 132.416 7.23342 133.355 5.22812C134.439 2.86473 136.102 1.64722 138.199 1.64722C139.355 1.64722 140.366 2.0053 141.234 2.64986C142.101 3.36605 142.823 4.51194 143.403 6.15915C143.981 7.80636 144.27 10.3846 144.27 13.7507C144.341 16.6869 144.052 18.9788 143.474 20.7692ZM172.964 22.9177L167.326 14.3236C168.773 13.9655 169.856 13.3209 170.652 12.6048C171.881 11.3873 172.53 9.81166 172.53 7.9496C172.53 6.37401 172.097 5.08488 171.301 3.93899C170.507 2.79311 169.423 2.0053 168.122 1.5756C166.821 1.14589 164.725 0.931034 161.978 0.931034H151.136V1.64722C152.221 1.64722 152.942 1.79045 153.304 1.93369C153.666 2.14854 153.955 2.43501 154.1 2.79311C154.244 3.1512 154.316 4.01061 154.316 5.37135V21.9151C154.316 23.2759 154.244 24.1353 154.1 24.4933C153.955 24.8515 153.666 25.1379 153.304 25.3527C152.942 25.5677 152.221 25.7109 151.136 25.7109V26.4271H163.062V25.7109C161.978 25.7109 161.255 25.6392 160.893 25.4244C160.533 25.2095 160.244 24.923 160.099 24.565C159.953 24.2069 159.882 23.3474 159.882 21.9868V14.8249H161.4L168.916 26.4271H176.216V25.7109C175.566 25.6392 175.06 25.4244 174.555 25.0663C174.193 24.7798 173.688 24.0636 172.964 22.9177ZM166.17 11.1724C165.737 12.0318 165.086 12.6048 164.29 12.8912C163.496 13.1777 162.34 13.3926 160.749 13.3926H159.737V2.22016H161.544C163.351 2.22016 164.725 2.64986 165.519 3.5809C166.315 4.51194 166.748 5.94429 166.748 7.87798C166.893 9.31034 166.604 10.3846 166.17 11.1724ZM196.6 4.08222C194.286 1.5756 191.251 0.35809 187.564 0.501327C184.167 0.35809 181.277 1.5756 178.892 4.08222C176.505 6.58886 175.349 9.74005 175.349 13.5358C175.349 16.9019 176.216 19.8382 178.023 22.2732C180.337 25.3527 183.518 26.9283 187.71 26.9283C191.901 26.9283 195.082 25.2812 197.395 22.0583C199.13 19.6233 199.997 16.7586 199.997 13.5358C200.068 9.74005 198.912 6.58886 196.6 4.08222ZM193.058 20.7692C192.479 22.5597 191.685 23.7771 190.673 24.6366C189.878 25.2812 188.866 25.5676 187.71 25.5676C185.974 25.5676 184.601 24.8515 183.662 23.3474C182.289 21.2706 181.566 18.0477 181.566 13.679C181.566 10.0265 181.999 7.23342 182.938 5.22812C184.023 2.86473 185.685 1.64722 187.782 1.64722C188.938 1.64722 189.949 2.0053 190.818 2.64986C191.685 3.36605 192.407 4.51194 192.986 6.15915C193.564 7.80636 193.853 10.3846 193.853 13.7507C193.926 16.6869 193.636 18.9788 193.058 20.7692Z" fill="#D8B06D"/>
</svg>
